<svg data-v-423bf9ae="" xmlns="http://www.w3.org/2000/svg" viewBox="0 0 248 90" class="iconLeft"><!----><!----><!----><g data-v-423bf9ae="" id="8e2445e8-5517-4723-9838-dde595dd705b" fill="white" transform="matrix(5.476617946492855,0,0,5.476617946492855,65.15742174003341,11.531473765949372)"><path d="M1.68 5.77L1.54 5.94Q1.74 6.05 1.94 6.16Q2.14 6.27 2.28 6.38L2.28 6.38Q3.07 7.07 3.85 7.74Q4.63 8.41 5.38 9.14L5.38 9.14Q5.46 9.23 5.52 9.27L5.52 9.27L5.49 9.30Q5.50 9.44 5.41 9.58Q5.32 9.73 5.19 9.86Q5.05 9.98 4.90 10.07Q4.75 10.15 4.62 10.16L4.62 10.16Q4.35 9.91 4.07 9.69Q3.79 9.46 3.51 9.21L3.51 9.21Q3.11 8.85 2.72 8.47Q2.32 8.09 1.88 7.76L1.88 7.76Q1.76 7.67 1.60 7.59Q1.43 7.52 1.26 7.43Q1.09 7.35 0.95 7.25Q0.81 7.14 0.74 7.01L0.74 7.01L0.83 6.93Q0.76 6.89 0.68 6.85Q0.60 6.82 0.53 6.76L0.53 6.76Q0.45 6.79 0.42 6.79L0.42 6.79Q0.32 6.80 0.30 6.78Q0.28 6.76 0.29 6.66L0.29 6.66Q0.29 6.64 0.32 6.58L0.32 6.58Q0.28 6.54 0.24 6.50Q0.20 6.47 0.17 6.41L0.17 6.41Q0.17 6.26 0.33 6.03Q0.49 5.80 0.69 5.66L0.69 5.66Q0.88 5.45 1.14 5.19Q1.40 4.93 1.71 4.65L1.71 4.65Q2.14 4.21 2.59 3.79Q3.04 3.37 3.50 2.95L3.50 2.95Q3.67 2.80 3.84 2.65Q4.00 2.49 4.17 2.34L4.17 2.34Q4.30 2.17 4.43 1.99Q4.56 1.82 4.71 1.67Q4.86 1.53 5.02 1.44Q5.18 1.34 5.36 1.34L5.36 1.34Q5.39 1.34 5.40 1.35Q5.40 1.36 5.43 1.36L5.43 1.36Q5.43 1.39 5.44 1.40Q5.45 1.41 5.45 1.44L5.45 1.44Q5.59 1.41 5.59 1.50L5.59 1.50Q5.59 1.58 5.52 1.69Q5.45 1.79 5.36 1.90Q5.26 2.00 5.24 2.04L5.24 2.04Q5.22 2.04 5.22 2.06L5.22 2.06Q5.17 2.13 5.13 2.17Q5.10 2.21 5.07 2.24L5.07 2.24Q4.96 2.34 4.86 2.42Q4.76 2.51 4.65 2.60L4.65 2.60Q4.42 2.83 4.21 3.05Q3.99 3.28 3.75 3.50L3.75 3.50Q3.40 3.82 3.03 4.14Q2.66 4.45 2.37 4.82L2.37 4.82Q2.23 4.98 2.04 5.24Q1.86 5.50 1.65 5.77L1.65 5.77L1.68 5.77ZM14.43 3.26L14.36 3.35Q14.45 3.32 14.48 3.43L14.48 3.43Q14.48 3.46 14.48 3.48Q14.49 3.50 14.49 3.53L14.49 3.53Q14.60 3.50 14.71 3.49Q14.81 3.47 14.92 3.44L14.92 3.44Q15.58 3.15 16.35 2.97L16.35 2.97Q16.17 3.21 16.00 3.43Q15.82 3.65 15.65 3.88L15.65 3.88L15.36 3.96Q15.25 4.06 15.16 4.12Q15.08 4.19 15.05 4.21L15.05 4.21Q14.92 4.28 14.74 4.35L14.74 4.35Q14.78 4.55 14.73 4.77Q14.67 4.98 14.62 5.18L14.62 5.18L14.42 5.32Q14.39 5.40 14.39 5.49L14.39 5.49Q14.39 5.57 14.38 5.66L14.38 5.66Q14.38 5.73 14.36 5.86Q14.35 5.99 14.34 6.14Q14.32 6.29 14.32 6.42Q14.31 6.55 14.31 6.62L14.31 6.62Q14.27 7.25 14.25 7.85Q14.24 8.46 14.21 9.07L14.21 9.07Q14.20 9.42 14.18 9.77Q14.17 10.12 14.09 10.44Q14.01 10.77 13.84 11.05Q13.66 11.33 13.33 11.52L13.33 11.52Q13.26 11.55 13.20 11.58Q13.13 11.61 13.08 11.54L13.08 11.54Q12.99 11.38 12.97 11.15Q12.95 10.92 12.96 10.68Q12.96 10.43 12.98 10.20Q13.01 9.97 13.01 9.80L13.01 9.80Q13.02 9.52 13.03 9.23Q13.05 8.93 13.08 8.65L13.08 8.65Q12.73 8.93 12.39 9.14Q12.05 9.35 11.82 9.45L11.82 9.45Q11.48 9.59 11.14 9.74Q10.81 9.88 10.46 9.99Q10.12 10.09 9.77 10.13Q9.42 10.16 9.04 10.11L9.04 10.11Q8.79 10.07 8.56 9.93Q8.33 9.80 8.09 9.72L8.09 9.72Q7.62 9.56 7.29 9.44Q6.97 9.31 6.75 9.11Q6.52 8.92 6.38 8.61Q6.23 8.30 6.09 7.78L6.09 7.78Q5.84 6.83 5.96 5.92Q6.08 5.00 6.48 4.17Q6.87 3.35 7.50 2.63Q8.12 1.92 8.88 1.37L8.88 1.37Q9.39 1.01 10.05 0.80Q10.70 0.60 11.34 0.64L11.34 0.64Q11.56 0.66 11.73 0.69Q11.90 0.71 12.11 0.76L12.11 0.76Q12.22 0.78 12.29 0.77Q12.35 0.76 12.50 0.70L12.50 0.70Q12.47 0.90 12.37 1.04Q12.26 1.19 12.14 1.33L12.14 1.33Q11.90 1.57 11.70 1.63Q11.49 1.69 11.27 1.67L11.27 1.67L11.16 1.78Q10.89 1.71 10.56 1.83Q10.22 1.96 9.87 2.18L9.87 2.18L9.79 2.34Q9.70 2.38 9.61 2.41Q9.52 2.45 9.45 2.48L9.45 2.48Q9.35 2.55 9.27 2.63Q9.18 2.72 9.10 2.79L9.10 2.79Q9.00 2.93 8.93 3.12Q8.86 3.30 8.82 3.48Q8.78 3.65 8.75 3.81Q8.72 3.96 8.72 4.03L8.72 4.03Q8.65 4.59 8.67 5.22Q8.69 5.85 8.84 6.46Q8.99 7.07 9.27 7.62Q9.55 8.18 10.00 8.57L10.00 8.57Q10.08 8.57 10.16 8.57L10.16 8.57Q10.25 8.57 10.33 8.58L10.33 8.58L10.21 8.74Q10.40 8.86 10.63 8.94Q10.86 9.02 11.07 9.11L11.07 9.11Q11.52 9.00 11.94 8.80Q12.36 8.60 12.77 8.41L12.77 8.41Q12.87 8.34 12.96 8.26Q13.05 8.18 13.13 8.06L13.13 8.06L13.12 8.08Q13.08 8.12 13.13 8.01L13.13 8.01Q13.20 7.43 13.28 6.88Q13.36 6.33 13.43 5.75L13.43 5.75Q13.45 5.54 13.49 5.30Q13.52 5.05 13.55 4.80L13.55 4.80Q13.23 4.94 12.92 5.07Q12.61 5.19 12.31 5.35L12.31 5.35Q11.90 5.56 11.50 5.77Q11.10 5.98 10.68 6.16L10.68 6.16Q10.53 6.17 10.55 6.08Q10.57 5.98 10.65 5.85Q10.74 5.73 10.85 5.61Q10.96 5.49 10.99 5.46L10.99 5.46L11.16 5.33Q11.16 5.33 11.17 5.31L11.17 5.31Q11.20 5.29 11.20 5.29L11.20 5.29Q11.21 5.29 11.24 5.28L11.24 5.28Q11.26 5.26 11.26 5.26L11.26 5.26Q11.27 5.26 11.28 5.25L11.28 5.25Q11.19 5.25 11.12 5.21L11.12 5.21Q10.99 5.15 11.03 5.01Q11.07 4.87 11.19 4.72Q11.30 4.56 11.43 4.42Q11.56 4.28 11.63 4.23L11.63 4.23Q12.21 3.78 12.96 3.54Q13.72 3.30 14.43 3.26L14.43 3.26ZM7.73 3.49L8.18 3.18L8.44 2.91Q8.72 2.46 9.13 2.11L9.13 2.11Q9.28 1.99 9.47 1.89Q9.66 1.79 9.86 1.69L9.86 1.69Q9.90 1.67 10.01 1.58L10.01 1.58Q9.84 1.60 9.68 1.63Q9.52 1.67 9.35 1.72L9.35 1.72Q8.76 1.92 8.32 2.31Q7.88 2.70 7.57 3.21Q7.25 3.71 7.07 4.29Q6.89 4.87 6.85 5.46L6.85 5.46Q6.82 5.91 6.90 6.50Q6.97 7.10 7.22 7.62L7.22 7.62Q6.94 6.40 7.04 5.54Q7.14 4.68 7.60 3.93L7.60 3.93Q7.63 3.82 7.67 3.71Q7.70 3.60 7.73 3.49L7.73 3.49ZM25.20 3.26L25.13 3.35Q25.21 3.32 25.24 3.43L25.24 3.43Q25.24 3.46 25.25 3.48Q25.26 3.50 25.26 3.53L25.26 3.53Q25.37 3.50 25.47 3.49Q25.58 3.47 25.69 3.44L25.69 3.44Q26.35 3.15 27.12 2.97L27.12 2.97Q26.94 3.21 26.76 3.43Q26.59 3.65 26.42 3.88L26.42 3.88L26.12 3.96Q26.01 4.06 25.93 4.12Q25.84 4.19 25.82 4.21L25.82 4.21Q25.69 4.28 25.51 4.35L25.51 4.35Q25.55 4.55 25.49 4.77Q25.44 4.98 25.38 5.18L25.38 5.18L25.19 5.32Q25.16 5.40 25.16 5.49L25.16 5.49Q25.16 5.57 25.14 5.66L25.14 5.66Q25.14 5.73 25.13 5.86Q25.12 5.99 25.10 6.14Q25.09 6.29 25.08 6.42Q25.07 6.55 25.07 6.62L25.07 6.62Q25.03 7.25 25.02 7.85Q25.00 8.46 24.98 9.07L24.98 9.07Q24.96 9.42 24.95 9.77Q24.93 10.12 24.86 10.44Q24.78 10.77 24.61 11.05Q24.43 11.33 24.09 11.52L24.09 11.52Q24.02 11.55 23.96 11.58Q23.90 11.61 23.84 11.54L23.84 11.54Q23.76 11.38 23.74 11.15Q23.72 10.92 23.72 10.68Q23.73 10.43 23.75 10.20Q23.77 9.97 23.77 9.80L23.77 9.80Q23.79 9.52 23.80 9.23Q23.81 8.93 23.84 8.65L23.84 8.65Q23.49 8.93 23.16 9.14Q22.82 9.35 22.58 9.45L22.58 9.45Q22.25 9.59 21.91 9.74Q21.57 9.88 21.23 9.99Q20.89 10.09 20.54 10.13Q20.19 10.16 19.81 10.11L19.81 10.11Q19.56 10.07 19.33 9.93Q19.10 9.80 18.86 9.72L18.86 9.72Q18.38 9.56 18.06 9.44Q17.74 9.31 17.51 9.11Q17.29 8.92 17.14 8.61Q17.00 8.30 16.86 7.78L16.86 7.78Q16.60 6.83 16.72 5.92Q16.84 5.00 17.24 4.17Q17.64 3.35 18.26 2.63Q18.89 1.92 19.64 1.37L19.64 1.37Q20.16 1.01 20.81 0.80Q21.46 0.60 22.11 0.64L22.11 0.64Q22.33 0.66 22.50 0.69Q22.67 0.71 22.88 0.76L22.88 0.76Q22.99 0.78 23.05 0.77Q23.11 0.76 23.27 0.70L23.27 0.70Q23.24 0.90 23.13 1.04Q23.03 1.19 22.90 1.33L22.90 1.33Q22.67 1.57 22.46 1.63Q22.26 1.69 22.04 1.67L22.04 1.67L21.92 1.78Q21.66 1.71 21.32 1.83Q20.99 1.96 20.64 2.18L20.64 2.18L20.55 2.34Q20.47 2.38 20.38 2.41Q20.29 2.45 20.22 2.48L20.22 2.48Q20.12 2.55 20.03 2.63Q19.95 2.72 19.87 2.79L19.87 2.79Q19.77 2.93 19.70 3.12Q19.63 3.30 19.59 3.48Q19.54 3.65 19.52 3.81Q19.49 3.96 19.49 4.03L19.49 4.03Q19.42 4.59 19.44 5.22Q19.46 5.85 19.61 6.46Q19.75 7.07 20.03 7.62Q20.31 8.18 20.76 8.57L20.76 8.57Q20.85 8.57 20.93 8.57L20.93 8.57Q21.01 8.57 21.10 8.58L21.10 8.58L20.97 8.74Q21.17 8.86 21.40 8.94Q21.63 9.02 21.84 9.11L21.84 9.11Q22.29 9.00 22.71 8.80Q23.13 8.60 23.53 8.41L23.53 8.41Q23.63 8.34 23.72 8.26Q23.81 8.18 23.90 8.06L23.90 8.06L23.88 8.08Q23.84 8.12 23.90 8.01L23.90 8.01Q23.97 7.43 24.05 6.88Q24.12 6.33 24.19 5.75L24.19 5.75Q24.22 5.54 24.25 5.30Q24.29 5.05 24.32 4.80L24.32 4.80Q24.00 4.94 23.69 5.07Q23.38 5.19 23.07 5.35L23.07 5.35Q22.67 5.56 22.27 5.77Q21.87 5.98 21.45 6.16L21.45 6.16Q21.29 6.17 21.31 6.08Q21.34 5.98 21.42 5.85Q21.50 5.73 21.62 5.61Q21.73 5.49 21.76 5.46L21.76 5.46L21.92 5.33Q21.92 5.33 21.94 5.31L21.94 5.31Q21.97 5.29 21.97 5.29L21.97 5.29Q21.98 5.29 22.01 5.28L22.01 5.28Q22.02 5.26 22.02 5.26L22.02 5.26Q22.04 5.26 22.05 5.25L22.05 5.25Q21.95 5.25 21.88 5.21L21.88 5.21Q21.76 5.15 21.80 5.01Q21.84 4.87 21.95 4.72Q22.06 4.56 22.20 4.42Q22.33 4.28 22.40 4.23L22.40 4.23Q22.97 3.78 23.73 3.54Q24.49 3.30 25.20 3.26L25.20 3.26ZM18.49 3.49L18.94 3.18L19.21 2.91Q19.49 2.46 19.89 2.11L19.89 2.11Q20.05 1.99 20.24 1.89Q20.43 1.79 20.62 1.69L20.62 1.69Q20.66 1.67 20.78 1.58L20.78 1.58Q20.61 1.60 20.45 1.63Q20.29 1.67 20.12 1.72L20.12 1.72Q19.53 1.92 19.09 2.31Q18.65 2.70 18.33 3.21Q18.02 3.71 17.84 4.29Q17.65 4.87 17.61 5.46L17.61 5.46Q17.58 5.91 17.66 6.50Q17.74 7.10 17.99 7.62L17.99 7.62Q17.71 6.40 17.81 5.54Q17.91 4.68 18.37 3.93L18.37 3.93Q18.40 3.82 18.43 3.71Q18.47 3.60 18.49 3.49L18.49 3.49ZM28.99 1.92L28.67 2.25Q28.74 2.31 28.83 2.32L28.83 2.32Q29.06 2.42 29.31 2.48Q29.55 2.53 29.79 2.65L29.79 2.65Q30.63 3.05 31.42 3.57Q32.20 4.09 32.84 4.77L32.84 4.77Q32.87 4.75 32.91 4.74Q32.96 4.73 32.98 4.70L32.98 4.70Q33.12 4.68 33.15 4.70Q33.18 4.73 33.15 4.87L33.15 4.87L33.11 4.96Q33.14 4.96 33.17 4.96Q33.19 4.97 33.24 4.98L33.24 4.98Q33.26 5.12 33.19 5.26Q33.11 5.40 32.98 5.52Q32.86 5.64 32.71 5.74Q32.56 5.84 32.45 5.88L32.45 5.88Q32.33 5.91 32.28 5.88L32.28 5.88Q32.24 5.88 32.21 5.87L32.21 5.87L32.17 5.82L32.16 5.82Q32.13 5.84 32.11 5.84Q32.09 5.85 32.06 5.87L32.06 5.87Q31.65 6.31 31.22 6.71Q30.79 7.11 30.38 7.50L30.38 7.50Q29.83 8.04 29.27 8.59Q28.71 9.14 28.04 9.52L28.04 9.52Q27.78 9.63 27.79 9.52Q27.80 9.41 27.90 9.25L27.90 9.25Q27.89 9.25 27.87 9.27L27.87 9.27Q27.79 9.32 27.71 9.37Q27.62 9.41 27.57 9.41Q27.51 9.42 27.50 9.37Q27.48 9.31 27.54 9.17L27.54 9.17Q27.96 8.51 28.38 8.14Q28.80 7.77 29.26 7.46L29.26 7.46Q29.39 7.35 29.51 7.24Q29.62 7.13 29.74 7.01L29.74 7.01Q30.18 6.59 30.64 6.17Q31.09 5.74 31.60 5.36L31.60 5.36Q31.44 5.21 31.31 5.07Q31.18 4.93 31.08 4.84L31.08 4.84Q30.58 4.47 29.97 4.07Q29.37 3.68 28.77 3.49L28.77 3.49Q28.64 3.44 28.48 3.41Q28.31 3.37 28.14 3.32Q27.97 3.26 27.82 3.18Q27.66 3.11 27.57 3.00L27.57 3.00Q27.40 2.80 27.50 2.57Q27.61 2.34 27.85 2.16Q28.08 1.97 28.41 1.90Q28.73 1.82 28.99 1.92L28.99 1.92Z"></path></g><!----><g data-v-423bf9ae="" id="65bdfb62-949b-43b1-b20b-355a989697d5" transform="matrix(2.8125,0,0,2.8125,-21.194407999515533,0)" stroke="none" fill="white"><path d="M18.396 26.495L7.807 15.905 18.432 5.28l.707.707-9.918 9.918 9.882 9.883z"></path><path d="M23.194 1v4.194H19V1h4.194m1-1H18v6.194h6.194V0zM23.194 26.806V31H19v-4.194h4.194m1-1H18V32h6.194v-6.194z"></path></g><!----></svg>